<?xml version="1.0" encoding="UTF-8"?>
<svg version="1.1" xmlns="http://www.w3.org/2000/svg" width="207" height="80">
<path d="M0 0 C1.6015625 1.265625 1.6015625 1.265625 2.453125 3.28125 C2.50210938 3.93609375 2.55109375 4.5909375 2.6015625 5.265625 C1.9415625 5.925625 1.2815625 6.585625 0.6015625 7.265625 C-1.69170277 6.9598563 -3.24420817 6.36135355 -5.2109375 5.140625 C-8.56525678 3.79889729 -10.94585967 4.40248054 -14.3984375 5.265625 C-16.98177083 6.68229167 -16.98177083 6.68229167 -18.3984375 9.265625 C-18.95207632 12.04523435 -18.97995653 14.48915669 -18.3984375 17.265625 C-16.52828656 19.69682123 -15.11705405 20.90631673 -12.3984375 22.265625 C-10.9519133 22.41629714 -9.4996441 22.51423536 -8.046875 22.58203125 C-7.19609375 22.62392578 -6.3453125 22.66582031 -5.46875 22.70898438 C-4.57929688 22.74830078 -3.68984375 22.78761719 -2.7734375 22.828125 C-1.87625 22.87130859 -0.9790625 22.91449219 -0.0546875 22.95898438 C2.16390533 23.06519361 4.3826113 23.16723694 6.6015625 23.265625 C7.2265625 25.140625 7.2265625 25.140625 7.6015625 27.265625 C4.77276964 30.09441786 2.80232052 29.5798916 -1.15625 29.6796875 C-1.81930145 29.69905365 -2.48235291 29.7184198 -3.16549683 29.7383728 C-5.28467927 29.79818454 -7.403916 29.84455888 -9.5234375 29.890625 C-10.95965919 29.92880345 -12.39585795 29.96785511 -13.83203125 30.0078125 C-17.35395686 30.10388625 -20.87605358 30.18791142 -24.3984375 30.265625 C-24.74658454 34.52625986 -24.74658454 34.52625986 -22.8984375 38.140625 C-22.4034375 38.511875 -21.9084375 38.883125 -21.3984375 39.265625 C-21.1303125 38.481875 -20.8621875 37.698125 -20.5859375 36.890625 C-19.3984375 34.265625 -19.3984375 34.265625 -16.3984375 32.265625 C-13.33317399 31.72030658 -10.46435421 31.72236607 -7.3984375 32.265625 C-4.64274303 34.44721645 -2.96255003 36.13739994 -1.3984375 39.265625 C-1.22065127 41.86538432 -1.12090728 44.41387307 -1.0859375 47.015625 C-1.05693359 47.71945313 -1.02792969 48.42328125 -0.99804688 49.1484375 C-0.93618562 54.26864574 -1.8976582 57.28829983 -5.3984375 61.265625 C-8.21333148 62.40751595 -10.28560925 62.21541809 -13.3984375 62.265625 C-14.0584375 61.935625 -14.7184375 61.605625 -15.3984375 61.265625 C-15.3984375 59.945625 -15.3984375 58.625625 -15.3984375 57.265625 C-14.00625 57.3584375 -14.00625 57.3584375 -12.5859375 57.453125 C-9.41763062 57.59708955 -9.41763062 57.59708955 -7.69921875 55.75390625 C-7.26996094 55.26277344 -6.84070313 54.77164063 -6.3984375 54.265625 C-7.06230469 54.16765625 -7.72617188 54.0696875 -8.41015625 53.96875 C-13.67427563 53.07730789 -17.65448268 52.3839753 -21.3984375 48.265625 C-21.3984375 47.275625 -21.3984375 46.285625 -21.3984375 45.265625 C-22.1409375 45.183125 -22.8834375 45.100625 -23.6484375 45.015625 C-27.14444711 44.06216783 -28.31268782 43.24526739 -30.3984375 40.265625 C-31.55968631 36.03931129 -31.91503085 32.55710838 -30.2734375 28.453125 C-28.19209164 26.02488817 -25.97865746 24.14848821 -23.3984375 22.265625 C-23.72070312 21.70617187 -24.04296875 21.14671875 -24.375 20.5703125 C-26.1503287 16.57243488 -25.94778221 12.55187011 -25.3984375 8.265625 C-19.924015 -2.68322 -10.63538879 -5.17397292 0 0 Z M-16.8359375 38.140625 C-18.49716924 39.96029709 -18.49716924 39.96029709 -18.3984375 41.265625 C-14.1084375 41.925625 -9.8184375 42.585625 -5.3984375 43.265625 C-6.0584375 41.285625 -6.7184375 39.305625 -7.3984375 37.265625 C-12.43622108 35.9301874 -12.43622108 35.9301874 -16.8359375 38.140625 Z M-6.3984375 46.265625 C-5.3984375 48.265625 -5.3984375 48.265625 -5.3984375 48.265625 Z " fill="#3AA1DE" transform="translate(190.3984375,7.734375)"/>
<path d="M0 0 C0.66 0.33 1.32 0.66 2 1 C2.33 8.26 2.66 15.52 3 23 C4.98 23 6.96 23 9 23 C8.773125 22.113125 8.54625 21.22625 8.3125 20.3125 C7.94009115 16.36496618 8.6021843 15.0829059 11 12 C14.15546316 9.89635789 14.56087261 9.73588824 18.0625 10.1875 C19.10083984 10.30158203 19.10083984 10.30158203 20.16015625 10.41796875 C22 11 22 11 24 14 C23.67 14.66 23.34 15.32 23 16 C22.36191406 15.91621094 21.72382813 15.83242188 21.06640625 15.74609375 C20.24011719 15.64425781 19.41382813 15.54242188 18.5625 15.4375 C17.73878906 15.33308594 16.91507813 15.22867187 16.06640625 15.12109375 C15.38449219 15.08113281 14.70257813 15.04117187 14 15 C12.73527935 16.05429686 12.73527935 16.05429686 12.75 18.4375 C12.8325 19.283125 12.915 20.12875 13 21 C16.16240582 23.10827055 17.50657469 23.33817465 21.1875 23.625 C22.08855469 23.69976563 22.98960937 23.77453125 23.91796875 23.8515625 C24.60503906 23.90054687 25.29210937 23.94953125 26 24 C26 24.99 26 25.98 26 27 C22.22918278 27.02899599 18.45839417 27.04679729 14.6875 27.0625 C13.0797168 27.07506836 13.0797168 27.07506836 11.43945312 27.08789062 C10.41142578 27.09111328 9.38339844 27.09433594 8.32421875 27.09765625 C7.37635498 27.10289307 6.42849121 27.10812988 5.4519043 27.11352539 C3 27 3 27 0 26 C-2.00875442 26.27571139 -4.01178687 26.60235737 -6 27 C-5.67 27.99 -5.34 28.98 -5 30 C-6.66180738 33.40670513 -7.80334098 34.86889399 -11 37 C-15.52250916 37.59022577 -19.69563971 37.52729459 -23.9375 35.8125 C-27.02223614 33.10167127 -28.81415566 30.94967608 -29.21484375 26.74609375 C-29.30352964 20.60705928 -29.30352964 20.60705928 -28 18 C-27.01 18.33 -26.02 18.66 -25 19 C-24.92652344 20.03060547 -24.92652344 20.03060547 -24.8515625 21.08203125 C-24.77679688 21.98308594 -24.70203125 22.88414063 -24.625 23.8125 C-24.55539063 24.70582031 -24.48578125 25.59914063 -24.4140625 26.51953125 C-24.13354964 29.24398499 -24.13354964 29.24398499 -22 32 C-16.66539533 33.17125765 -16.66539533 33.17125765 -11.5 32.0625 C-10.7575 31.5365625 -10.7575 31.5365625 -10 31 C-10.33 30.01 -10.66 29.02 -11 28 C-14.50294871 26.28432339 -14.50294871 26.28432339 -18 25 C-17.67 24.01 -17.34 23.02 -17 22 C-16.38125 22.165 -15.7625 22.33 -15.125 22.5 C-12.25947486 22.95848402 -9.69764826 23.050066 -6.8046875 23.03125 C-5.90476074 23.02673828 -5.00483398 23.02222656 -4.07763672 23.01757812 C-3.3920166 23.01177734 -2.70639648 23.00597656 -2 23 C-1.97494385 22.3387915 -1.9498877 21.67758301 -1.92407227 20.99633789 C-1.80846898 18.01817695 -1.68558246 15.0403608 -1.5625 12.0625 C-1.52318359 11.02158203 -1.48386719 9.98066406 -1.44335938 8.90820312 C-1.40146484 7.91884766 -1.35957031 6.92949219 -1.31640625 5.91015625 C-1.27974854 4.99371338 -1.24309082 4.07727051 -1.20532227 3.13305664 C-1 1 -1 1 0 0 Z " fill="#6EBEEF" transform="translate(114,6)"/>
<path d="M0 0 C0.99 0.33 1.98 0.66 3 1 C3.47990402 8.07858428 3.47990402 8.07858428 1.4375 12 C-1 14 -1 14 -4.5 13.9375 C-5.655 13.958125 -6.81 13.97875 -8 14 C-10.25 16.83333333 -10.25 16.83333333 -12 20 C-14.74519126 22.25497853 -16.29470687 22 -19.9375 22 C-23.42080405 21.44006701 -24.15592879 20.86356231 -27 18.375 C-29.32124485 14.45789932 -29.66315825 12.47631815 -29 8 C-27.6875 5.5625 -27.6875 5.5625 -26 4 C-25.01 4 -24.02 4 -23 4 C-24 8 -24 8 -24.75 9.9375 C-25.18391923 12.16478658 -25.18391923 12.16478658 -23.9375 14.75 C-22.15737866 17.30275387 -22.15737866 17.30275387 -19 17.5 C-15.66046793 16.94341132 -14.94984985 16.66910282 -13 14 C-12.42052719 11.03756274 -12.42052719 11.03756274 -12.3125 7.8125 C-12.24675781 6.72582031 -12.18101563 5.63914062 -12.11328125 4.51953125 C-12.07589844 3.68808594 -12.03851563 2.85664063 -12 2 C-10.68 2.33 -9.36 2.66 -8 3 C-7.34 5.31 -6.68 7.62 -6 10 C-4.68 9.67 -3.36 9.34 -2 9 C-1.855625 7.700625 -1.71125 6.40125 -1.5625 5.0625 C-1.125 1.125 -1.125 1.125 0 0 Z " fill="#97D6FC" transform="translate(50,19)"/>
<path d="M0 0 C2.05938216 1.57885966 2.84571211 2.69142423 4 5 C5.02578304 16.5620403 5.02578304 16.5620403 3.12890625 21.0703125 C1.9375 22.4375 1.9375 22.4375 -1 24 C-4.8125 23.8125 -4.8125 23.8125 -8 23 C-7.67 22.01 -7.34 21.02 -7 20 C-5.02 19.67 -3.04 19.34 -1 19 C-0.67 18.01 -0.34 17.02 0 16 C-1.216875 16.103125 -2.43375 16.20625 -3.6875 16.3125 C-7.22393408 16.30621859 -7.93853572 16.04353719 -11 13.875 C-13.34662495 10.50172663 -13.59909679 9.02250703 -13 5 C-12.14874336 2.44623008 -11.431788 1.33583511 -9.3125 -0.3125 C-5.92838082 -1.31858949 -3.40333226 -0.80442399 0 0 Z M-8.9375 5.25 C-10.28490055 7.89585795 -10.28490055 7.89585795 -9.3125 10.25 C-8.10248645 12.13509577 -8.10248645 12.13509577 -6 13 C-3.6670134 13.04022391 -1.33293334 13.04320247 1 13 C0.87625 11.72125 0.7525 10.4425 0.625 9.125 C0.55539063 8.40570312 0.48578125 7.68640625 0.4140625 6.9453125 C0.13625251 4.77331755 0.13625251 4.77331755 -2 3 C-5.57373004 2.35856127 -6.52259357 2.44559253 -8.9375 5.25 Z " fill="#89CEF7" transform="translate(70,17)"/>
<path d="M0 0 C1.890625 0.21484375 1.890625 0.21484375 4 1 C5.46742502 3.89652178 6.11450315 6.85648617 7 10 C8.32 6.7 9.64 3.4 11 0 C12.32 0.33 13.64 0.66 15 1 C16.46742502 3.89652178 17.11450315 6.85648617 18 10 C19.32 6.7 20.64 3.4 22 0 C22.99 0 23.98 0 25 0 C24.46246904 6.18160604 22.45417612 11.326858 20 17 C18.68 17 17.36 17 16 17 C15.01 14.03 14.02 11.06 13 8 C11.35 11.3 9.7 14.6 8 18 C7.01 17.67 6.02 17.34 5 17 C3.95308833 14.69384528 3.10255004 12.51663184 2.3125 10.125 C2.08755859 9.48691406 1.86261719 8.84882812 1.63085938 8.19140625 C0.649565 5.33402021 0 3.04143468 0 0 Z " fill="#67BAEC" transform="translate(78,52)"/>
<path d="M0 0 C1.9128418 0.16455078 1.9128418 0.16455078 4 1 C5.29614258 2.90185547 5.29614258 2.90185547 6.39453125 5.3671875 C6.79220703 6.25277344 7.18988281 7.13835938 7.59960938 8.05078125 C7.99986328 8.98277344 8.40011719 9.91476563 8.8125 10.875 C9.44188477 12.26138672 9.44188477 12.26138672 10.08398438 13.67578125 C13.13364528 20.59906416 13.13364528 20.59906416 12 24 C11.01 23.67 10.02 23.34 9 23 C7.8125 19.9375 7.8125 19.9375 7 17 C3.04 17 -0.92 17 -5 17 C-5.66 18.98 -6.32 20.96 -7 23 C-7.99 23 -8.98 23 -10 23 C-9.35592303 17.96814871 -7.1775132 13.76491374 -5 9.25 C-4.63132812 8.47011719 -4.26265625 7.69023438 -3.8828125 6.88671875 C-1.14835963 1.14835963 -1.14835963 1.14835963 0 0 Z M1 5 C0.3309224 6.31127261 -0.33519806 7.6240545 -1 8.9375 C-1.37125 9.66839844 -1.7425 10.39929688 -2.125 11.15234375 C-3.07133403 12.80990072 -3.07133403 12.80990072 -3 14 C-0.36 14 2.28 14 5 14 C4.01 11.03 3.02 8.06 2 5 C1.67 5 1.34 5 1 5 Z " fill="#8BCFF8" transform="translate(30,46)"/>
<path d="M0 0 C2.375 1.125 2.375 1.125 4 3 C4.8125 6.125 4.8125 6.125 5 9 C4 10 4 10 1.27734375 10.09765625 C-0.37587891 10.08025391 -0.37587891 10.08025391 -2.0625 10.0625 C-3.71958984 10.04896484 -3.71958984 10.04896484 -5.41015625 10.03515625 C-6.26480469 10.02355469 -7.11945313 10.01195312 -8 10 C-6.8264791 12.10749951 -6.8264791 12.10749951 -5 14 C-2.70154505 14.2677441 -2.70154505 14.2677441 -0.3125 13.75 C0.89986328 13.55664062 0.89986328 13.55664062 2.13671875 13.359375 C2.75160156 13.24078125 3.36648437 13.1221875 4 13 C3.20703125 14.94140625 3.20703125 14.94140625 2 17 C-1.89365013 18.10197645 -4.08019087 18.40880406 -7.8125 16.75 C-10 15 -10 15 -12 12 C-12.50418234 7.36152243 -11.77954397 4.74169381 -9 1 C-5.94306678 -0.52846661 -3.37015453 -0.23242445 0 0 Z M-6 3 C-6.66 4.32 -7.32 5.64 -8 7 C-5.03 7 -2.06 7 1 7 C0.34 5.68 -0.32 4.36 -1 3 C-2.65 3 -4.3 3 -6 3 Z " fill="#57B1E7" transform="translate(117,52)"/>
<path d="M0 0 C0.78246094 -0.03738281 1.56492187 -0.07476562 2.37109375 -0.11328125 C4.5625 0.3125 4.5625 0.3125 6.3359375 1.91015625 C7.96484409 5.10053062 7.85688643 7.49961901 7.75 11.0625 C7.72292969 12.23296875 7.69585937 13.4034375 7.66796875 14.609375 C7.63316406 15.50140625 7.59835938 16.3934375 7.5625 17.3125 C6.5725 17.3125 5.5825 17.3125 4.5625 17.3125 C3.28375 17.580625 2.005 17.84875 0.6875 18.125 C-1.4296875 18.421875 -1.4296875 18.421875 -3.4375 18.3125 C-6.4375 15.875 -6.4375 15.875 -8.4375 13.3125 C-7.18773244 9.65933329 -6.76651247 8.53184164 -3.4375 6.3125 C-1.10550612 6.23344936 1.23082622 6.22451231 3.5625 6.3125 C3.2325 5.6525 2.9025 4.9925 2.5625 4.3125 C-0.4075 4.3125 -3.3775 4.3125 -6.4375 4.3125 C-6.4375 3.3225 -6.4375 2.3325 -6.4375 1.3125 C-4.12316978 0.15533489 -2.57689188 0.08039564 0 0 Z M-4.4375 10.3125 C-4.4375 11.6325 -4.4375 12.9525 -4.4375 14.3125 C-1.58671909 15.07966851 -1.58671909 15.07966851 1.5625 15.3125 C3.46208081 13.99931738 3.46208081 13.99931738 4.5625 12.3125 C4.2325 11.3225 3.9025 10.3325 3.5625 9.3125 C-0.57843698 9.10279441 -0.57843698 9.10279441 -4.4375 10.3125 Z " fill="#79C5F2" transform="translate(61.4375,51.6875)"/>
<path d="M0 0 C1.06992188 -0.03738281 2.13984375 -0.07476562 3.2421875 -0.11328125 C6.125 0.3125 6.125 0.3125 7.99609375 1.91015625 C9.49329264 5.09623694 9.41765263 7.55741231 9.3125 11.0625 C9.28542969 12.23296875 9.25835937 13.4034375 9.23046875 14.609375 C9.19566406 15.50140625 9.16085938 16.3934375 9.125 17.3125 C8.465 17.6425 7.805 17.9725 7.125 18.3125 C6.465 17.9825 5.805 17.6525 5.125 17.3125 C4.7109375 14.37109375 4.7109375 14.37109375 4.5 10.75 C4.38785156 8.95369141 4.38785156 8.95369141 4.2734375 7.12109375 C4.22445312 6.19425781 4.17546875 5.26742187 4.125 4.3125 C2.45888095 4.269779 0.79117115 4.27186168 -0.875 4.3125 C-2.68615956 6.12365956 -2.25699448 8.92528227 -2.4375 11.375 C-2.52128906 12.47972656 -2.60507813 13.58445312 -2.69140625 14.72265625 C-2.75199219 15.57730469 -2.81257812 16.43195313 -2.875 17.3125 C-4.195 17.3125 -5.515 17.3125 -6.875 17.3125 C-6.90184679 14.66659986 -6.92176357 12.02096904 -6.9375 9.375 C-6.94587891 8.62025391 -6.95425781 7.86550781 -6.96289062 7.08789062 C-6.97152441 5.16255687 -6.92724333 3.23714419 -6.875 1.3125 C-5.06850099 -0.49399901 -2.43748958 0.05553034 0 0 Z " fill="#4AA9E2" transform="translate(131.875,51.6875)"/>
<path d="M0 0 C0.66 0 1.32 0 2 0 C2 21.45 2 42.9 2 65 C1.34 65 0.68 65 0 65 C0 43.55 0 22.1 0 0 Z " fill="#FFFFFF" transform="translate(149,5)"/>
<path d="M0 0 C0.99 0.33 1.98 0.66 3 1 C3 8.59 3 16.18 3 24 C2.34 24.33 1.68 24.66 1 25 C0.34 24.67 -0.32 24.34 -1 24 C-1.02887236 20.18751574 -1.04675492 16.3750593 -1.0625 12.5625 C-1.07087891 11.47388672 -1.07925781 10.38527344 -1.08789062 9.26367188 C-1.09111328 8.22919922 -1.09433594 7.19472656 -1.09765625 6.12890625 C-1.10289307 5.17056885 -1.10812988 4.21223145 -1.11352539 3.22485352 C-1 1 -1 1 0 0 Z " fill="#83CAF5" transform="translate(47,45)"/>
<path d="M0 0 C2.64 0 5.28 0 8 0 C7.67 1.32 7.34 2.64 7 4 C5.02 4 3.04 4 1 4 C0.67 2.68 0.34 1.36 0 0 Z " fill="#8CD0F8" transform="translate(47,36)"/>
<path d="M0 0 C0.99 0 1.98 0 3 0 C3 1.32 3 2.64 3 4 C1.68 3.67 0.36 3.34 -1 3 C-0.67 2.01 -0.34 1.02 0 0 Z " fill="#9DD9FE" transform="translate(31,14)"/>
</svg>
