<svg width="1000" height="1000" viewBox="0 0 1000 1000" fill="none" xmlns="http://www.w3.org/2000/svg">
<mask id="mask0_471_3119" style="mask-type:luminance" maskUnits="userSpaceOnUse" x="98" y="149" width="759" height="796">
<path d="M848.5 645.5C847.5 742.5 803.667 824.5 717 891.5C630.333 958.5 542.667 961.667 454 901C365.333 840.333 279 784.5 195 733.5C111 682.5 82.0004 609.333 108 514C134 418.667 170.667 331.5 218 252.5C265.333 173.5 333.833 139.833 423.5 151.5C513.167 163.167 608.667 173.5 710 182.5C811.333 191.5 860 246.667 856 348C852 449.333 849.5 548.5 848.5 645.5Z" fill="white"/>
</mask>
<g mask="url(#mask0_471_3119)">
<path d="M848.5 645.5C847.5 742.5 803.667 824.5 717 891.5C630.333 958.5 542.667 961.667 454 901C365.333 840.333 279 784.5 195 733.5C111 682.5 82.0004 609.333 108 514C134 418.667 170.667 331.5 218 252.5C265.333 173.5 333.833 139.833 423.5 151.5C513.167 163.167 608.667 173.5 710 182.5C811.333 191.5 860 246.667 856 348C852 449.333 849.5 548.5 848.5 645.5Z" fill="#1F92D6"/>
</g>
</svg>
